# xmcd
#
# Track frame offsets: 
#        150
#        18083
#        32112
#        46099
#
# Disc length: 836 seconds
#
# Revision: 0
# Processed by: cddbd v1.5.2PL0 Copyright (c) Steve Scherf et al.
# Submitted via: ExactAudioCopy v0.99pb1
#
DISCID=22034204
DTITLE=Blind Lemon Chicken - Acoustic (16.04.08)
DYEAR=2008
DGENRE=Easy Listening
TTITLE0=Crossroads
TTITLE1=She's A Woman
TTITLE2=Ruby Ruby
TTITLE3=Dock Of The Bay
EXTD=
EXTT0=
EXTT1=
EXTT2=
EXTT3=
PLAYORDER=
